<svg width="500" height="500" viewBox="0 0 500 500" fill="none" xmlns="http://www.w3.org/2000/svg">
<path d="M430.3 289.76V332.17C430.3 335.857 428.836 339.392 426.229 341.999C423.622 344.606 420.087 346.07 416.4 346.07H264.33C260.645 346.068 257.112 344.602 254.508 341.995C251.903 339.389 250.44 335.855 250.44 332.17V296.33L231.5 276.44L416.36 275.87C418.188 275.864 420 276.218 421.691 276.913C423.382 277.608 424.919 278.63 426.214 279.921C427.509 281.211 428.537 282.745 429.238 284.433C429.939 286.122 430.3 287.932 430.3 289.76Z" fill="#F5F5F5"/>
<path d="M272.85 301.56L410.85 300.92L410.83 296.68L272.84 297.32L272.85 301.56Z" fill="#E6E6E6"/>
<path d="M272.85 315.51L410.85 314.88L410.83 310.64L272.84 311.27L272.85 315.51Z" fill="#E6E6E6"/>
<path d="M327.424 324.616L272.824 324.883L272.845 329.123L327.444 328.856L327.424 324.616Z" fill="#E6E6E6"/>
<path d="M160.79 46.5801H250.48C251.531 46.5801 252.571 46.787 253.542 47.189C254.512 47.5911 255.394 48.1804 256.137 48.9232C256.88 49.6661 257.469 50.548 257.871 51.5186C258.273 52.4892 258.48 53.5295 258.48 54.5801V98.4901C258.48 100.612 257.637 102.647 256.137 104.147C254.637 105.647 252.602 106.49 250.48 106.49H174.37C172.248 106.49 170.213 105.647 168.713 104.147C167.213 102.647 166.37 100.612 166.37 98.4901V52.1201L160.79 46.5801Z" fill="#F5F5F5"/>
<path d="M273.471 126.44V142.2C273.471 143.261 273.892 144.278 274.642 145.028C275.392 145.779 276.41 146.2 277.471 146.2H365.531C366.592 146.2 367.609 145.779 368.359 145.028C369.109 144.278 369.531 143.261 369.531 142.2V133.59L379.641 122.77L277.481 122.44C276.955 122.439 276.433 122.541 275.947 122.742C275.46 122.942 275.018 123.236 274.646 123.608C274.273 123.98 273.978 124.421 273.776 124.907C273.574 125.393 273.471 125.914 273.471 126.44Z" fill="#F0F0F0"/>
<path d="M214.11 95.0899V123.22C214.111 124.43 213.874 125.629 213.412 126.748C212.949 127.866 212.271 128.883 211.416 129.739C210.56 130.595 209.545 131.274 208.427 131.738C207.309 132.201 206.11 132.44 204.9 132.44H104C102.789 132.44 101.591 132.201 100.473 131.738C99.3549 131.274 98.3391 130.595 97.4838 129.739C96.6284 128.883 95.9502 127.866 95.488 126.748C95.0257 125.629 94.7885 124.43 94.7898 123.22V99.4599L82.2598 86.2599L204.87 85.8799C206.082 85.876 207.283 86.1113 208.403 86.5724C209.524 87.0335 210.543 87.7112 211.402 88.5669C212.26 89.4225 212.941 90.4391 213.406 91.5585C213.871 92.6778 214.11 93.8779 214.11 95.0899V95.0899Z" fill="#E0E0E0"/>
<path d="M109.691 102.92L201.211 102.5L201.201 99.6899L109.681 100.11L109.691 102.92Z" fill="#F0F0F0"/>
<path d="M109.691 112.18L201.211 111.75L201.201 108.94L109.681 109.36L109.691 112.18Z" fill="#F0F0F0"/>
<path d="M145.877 118.216L109.667 118.393L109.681 121.203L145.89 121.026L145.877 118.216Z" fill="#F0F0F0"/>
<path d="M65.4502 187.92V230.34C65.4502 232.165 65.8098 233.972 66.5085 235.658C67.2071 237.344 68.2312 238.875 69.522 240.165C70.8129 241.455 72.3453 242.478 74.0317 243.176C75.718 243.873 77.5253 244.231 79.3502 244.23H231.42C233.245 244.231 235.052 243.873 236.739 243.176C238.425 242.478 239.958 241.455 241.248 240.165C242.539 238.875 243.563 237.344 244.262 235.658C244.961 233.972 245.32 232.165 245.32 230.34V194.5L264.25 174.61L79.3902 174C77.5598 173.995 75.7464 174.351 74.054 175.049C72.3616 175.746 70.8237 176.771 69.5285 178.064C68.2332 179.358 67.2062 180.894 66.5063 182.585C65.8065 184.277 65.4476 186.09 65.4502 187.92V187.92Z" fill="#F0F0F0"/>
<path d="M222.9 199.72L84.9004 199.09L84.9204 194.85L222.91 195.48L222.9 199.72Z" fill="#E6E6E6"/>
<path d="M222.9 213.68L84.9004 213.04L84.9204 208.8L222.91 209.44L222.9 213.68Z" fill="#E6E6E6"/>
<path d="M168.304 222.759L168.283 226.999L222.883 227.265L222.903 223.025L168.304 222.759Z" fill="#E6E6E6"/>
<path d="M365.6 80.0003C365.676 83.653 364.668 87.2464 362.702 90.3258C360.736 93.4052 357.9 95.8324 354.555 97.3003C351.209 98.7681 347.503 99.2108 343.906 98.5722C340.309 97.9336 336.981 96.2425 334.345 93.7128C331.709 91.1831 329.883 87.9284 329.097 84.3604C328.311 80.7924 328.6 77.0715 329.929 73.6682C331.258 70.2649 333.567 67.3322 336.563 65.2411C339.558 63.1499 343.107 61.9943 346.76 61.9203C351.655 61.8211 356.39 63.6699 359.923 67.0602C363.456 70.4505 365.498 75.1049 365.6 80.0003V80.0003Z" fill="#F5F5F5"/>
<path d="M340.77 75.7401C341.46 75.6801 342.1 76.4501 342.18 77.4601C342.26 78.4701 341.77 79.3401 341.07 79.4001C340.37 79.4601 339.73 78.6801 339.65 77.6701C339.57 76.6601 340.07 75.7901 340.77 75.7401Z" fill="#E0E0E0"/>
<path d="M342.39 71.06C341.278 71.1975 340.178 71.4216 339.1 71.73C338.079 72.1963 337.096 72.7413 336.16 73.36C336.839 72.386 337.8 71.6433 338.914 71.2321C340.028 70.8209 341.241 70.7608 342.39 71.06Z" fill="#E0E0E0"/>
<path d="M352.51 75.5C351.8 75.5 351.2 76.26 351.16 77.28C351.12 78.3 351.65 79.13 352.36 79.16C353.07 79.19 353.66 78.39 353.7 77.38C353.74 76.37 353.21 75.52 352.51 75.5Z" fill="#E0E0E0"/>
<path d="M350.69 70.89C351.821 70.54 353.031 70.544 354.159 70.9015C355.287 71.2589 356.278 71.9528 357 72.89C356.044 72.3044 355.041 71.7993 354 71.38C352.911 71.1343 351.804 70.9705 350.69 70.89V70.89Z" fill="#E0E0E0"/>
<path d="M356.25 80.2002C356.258 80.5382 356.214 80.8754 356.12 81.2002C355.885 82.0887 355.506 82.9331 355 83.7002C354.275 84.8547 353.318 85.8457 352.19 86.6102C350.811 87.5863 349.184 88.1515 347.497 88.24C345.811 88.3285 344.133 87.9367 342.66 87.1102C341.455 86.4634 340.396 85.5749 339.55 84.5002C338.985 83.783 338.539 82.9794 338.23 82.1202C338.09 81.8046 338.012 81.4651 338 81.1202C338.48 82.2322 339.102 83.2776 339.85 84.2302C340.678 85.2264 341.699 86.046 342.85 86.6402C344.248 87.3976 345.828 87.7545 347.416 87.6716C349.004 87.5887 350.538 87.0691 351.85 86.1702C352.944 85.4598 353.886 84.5386 354.62 83.4602C355.299 82.4468 355.847 81.3514 356.25 80.2002V80.2002Z" fill="#E0E0E0"/>
<path d="M93.3506 288H96.0006L101.841 280.22V275.11C101.841 275.11 105.971 274.87 105.491 281.56C105.011 288.25 105.491 286.56 105.491 286.56C105.491 286.56 114.261 286.56 114.991 287.32C115.521 287.85 115.761 296.19 115.851 300.71C115.894 301.821 115.56 302.915 114.903 303.812C114.246 304.709 113.304 305.357 112.231 305.65C111.903 305.727 111.567 305.768 111.231 305.77C109.151 305.72 98.0006 304 98.0006 304H93.3506V288Z" fill="#F0F0F0"/>
<path d="M85.7002 286.57L87.3402 304.06H91.9202V286.92L85.7002 286.57Z" fill="#F0F0F0"/>
<path d="M461 135.92C460.369 135.244 459.5 134.842 458.577 134.799C457.654 134.756 456.75 135.076 456.06 135.69C455.374 136.239 454.817 136.932 454.428 137.72C454.039 138.508 453.828 139.371 453.81 140.25C453.647 139.37 453.295 138.537 452.776 137.808C452.258 137.079 451.587 136.472 450.81 136.03C450.038 135.509 449.093 135.31 448.176 135.474C447.26 135.638 446.443 136.153 445.9 136.91C445.313 137.948 445.135 139.167 445.4 140.33C445.573 141.503 446.064 142.606 446.82 143.52C449.59 146.46 451.02 146.93 454.45 148.92C457.57 146.5 458.58 145.92 460.92 142.59C461.551 141.585 461.897 140.427 461.92 139.24C462.032 138.058 461.704 136.876 461 135.92V135.92Z" fill="#F0F0F0"/>
<path d="M296.22 405.73L192.14 405.24C189.163 405.228 186.218 404.63 183.472 403.48C180.727 402.33 178.235 400.65 176.139 398.536C174.043 396.423 172.384 393.917 171.257 391.162C170.13 388.407 169.556 385.457 169.57 382.48L170.68 121.55C170.714 115.542 173.131 109.793 177.4 105.565C181.669 101.337 187.441 98.9762 193.45 99.0002L297.53 99.4802C303.541 99.5093 309.295 101.924 313.528 106.194C317.76 110.463 320.123 116.239 320.1 122.25L319 383.15C318.97 389.164 316.555 394.921 312.283 399.155C308.012 403.389 302.234 405.754 296.22 405.73Z" fill="#263238"/>
<path d="M297.38 108.46L277.2 108.37C276.541 108.381 275.891 108.521 275.287 108.783C274.684 109.045 274.137 109.424 273.68 109.898C273.223 110.372 272.864 110.931 272.624 111.544C272.383 112.157 272.266 112.812 272.28 113.47V117.13C272.293 117.788 272.176 118.443 271.936 119.056C271.695 119.669 271.336 120.228 270.879 120.702C270.422 121.176 269.876 121.555 269.272 121.817C268.668 122.079 268.018 122.22 267.36 122.23L228 122.05C227.34 122.035 226.691 121.889 226.088 121.621C225.485 121.354 224.942 120.969 224.488 120.491C224.034 120.012 223.68 119.448 223.445 118.832C223.21 118.216 223.1 117.559 223.12 116.9V113.24C223.14 112.581 223.029 111.924 222.794 111.308C222.559 110.692 222.205 110.128 221.751 109.65C221.298 109.171 220.754 108.787 220.151 108.519C219.549 108.251 218.899 108.106 218.24 108.09H211.14L193.51 108C191.424 107.991 189.357 108.393 187.427 109.182C185.497 109.972 183.741 111.134 182.26 112.602C180.779 114.07 179.602 115.815 178.795 117.738C177.989 119.662 177.569 121.725 177.56 123.81L176.48 378.49C176.464 382.701 178.12 386.746 181.084 389.737C184.049 392.727 188.079 394.419 192.29 394.44L296.16 394.92C298.245 394.929 300.312 394.528 302.242 393.738C304.172 392.949 305.928 391.787 307.409 390.319C308.89 388.85 310.068 387.105 310.874 385.182C311.681 383.259 312.1 381.196 312.11 379.11L313.19 124.43C313.2 122.343 312.8 120.275 312.011 118.343C311.222 116.411 310.06 114.654 308.592 113.171C307.124 111.688 305.378 110.509 303.454 109.7C301.531 108.892 299.466 108.471 297.38 108.46Z" fill="white"/>
<path d="M240.29 362.76C240.29 363.191 240.162 363.613 239.922 363.971C239.683 364.33 239.342 364.609 238.944 364.774C238.546 364.939 238.107 364.982 237.684 364.898C237.262 364.814 236.873 364.606 236.568 364.302C236.263 363.997 236.056 363.608 235.972 363.185C235.887 362.763 235.931 362.324 236.096 361.926C236.261 361.527 236.54 361.187 236.899 360.947C237.257 360.708 237.679 360.58 238.11 360.58C238.687 360.583 239.24 360.813 239.648 361.221C240.057 361.63 240.287 362.183 240.29 362.76V362.76Z" fill="#455A64"/>
<path d="M248.57 362.76C248.57 363.191 248.442 363.613 248.203 363.971C247.963 364.33 247.623 364.609 247.224 364.774C246.826 364.939 246.388 364.982 245.965 364.898C245.542 364.814 245.153 364.606 244.848 364.302C244.544 363.997 244.336 363.608 244.252 363.185C244.168 362.763 244.211 362.324 244.376 361.926C244.541 361.527 244.82 361.187 245.179 360.947C245.537 360.708 245.959 360.58 246.39 360.58C246.967 360.583 247.52 360.813 247.929 361.221C248.337 361.63 248.567 362.183 248.57 362.76V362.76Z" fill="#455A64"/>
<path d="M256.849 362.76C256.849 363.191 256.721 363.613 256.482 363.971C256.242 364.33 255.902 364.609 255.504 364.774C255.105 364.939 254.667 364.982 254.244 364.898C253.821 364.814 253.433 364.606 253.128 364.302C252.823 363.997 252.615 363.608 252.531 363.185C252.447 362.763 252.49 362.324 252.655 361.926C252.82 361.527 253.1 361.187 253.458 360.947C253.817 360.708 254.238 360.58 254.669 360.58C255.247 360.583 255.8 360.813 256.208 361.221C256.616 361.63 256.847 362.183 256.849 362.76V362.76Z" fill="#455A64"/>
<path d="M196.909 179.51C196.909 179.51 196.909 179.33 196.909 178.96C196.985 177.509 197.498 176.115 198.379 174.96C199.109 173.966 200.075 173.169 201.189 172.64C202.611 172.008 204.17 171.75 205.719 171.89H224.639L304.639 172.05H305.229L304.819 172.48L294.569 183.26L294.639 183.09V200.94C294.711 202.13 294.623 203.324 294.379 204.49C294.072 205.659 293.493 206.738 292.689 207.64C291.901 208.54 290.915 209.245 289.809 209.7C288.709 210.133 287.531 210.334 286.349 210.29H253.709L209.999 210.2H205.399C203.927 210.313 202.45 210.048 201.109 209.43C199.889 208.841 198.847 207.939 198.089 206.817C197.33 205.695 196.882 204.392 196.789 203.04C196.789 198.04 196.789 193.83 196.789 190.34C196.789 186.85 196.789 184.17 196.839 182.34C196.839 181.43 196.839 180.74 196.839 180.25C196.839 179.76 196.839 179.54 196.839 179.54C196.839 179.54 196.839 179.78 196.839 180.25C196.839 180.72 196.839 181.43 196.839 182.34C196.839 184.19 196.839 186.89 196.839 190.34C196.839 193.79 196.839 198.09 196.909 203.02C197.005 204.317 197.442 205.565 198.176 206.638C198.91 207.711 199.915 208.571 201.089 209.13C202.384 209.722 203.81 209.97 205.229 209.85H209.999L253.759 209.8H279.599H286.379C287.492 209.846 288.603 209.658 289.639 209.25C290.673 208.824 291.597 208.167 292.339 207.33C293.085 206.488 293.62 205.48 293.899 204.39C294.135 203.266 294.219 202.116 294.149 200.97V183L294.219 182.93L304.479 172.15L304.669 172.58L224.669 172.24L211.229 172.17H205.739C204.225 172.021 202.697 172.258 201.299 172.86C200.202 173.367 199.247 174.136 198.519 175.1C197.98 175.804 197.567 176.595 197.299 177.44C197.105 178.117 196.975 178.809 196.909 179.51V179.51Z" fill="#455A64"/>
<path d="M282.219 185.91L207.449 185.56L207.459 183.26L282.219 183.61V185.91Z" fill="#455A64"/>
<path d="M282.219 193.47L207.449 193.12L207.459 190.82L282.219 191.17V193.47Z" fill="#455A64"/>
<path d="M252.629 198.387L252.618 200.687L282.198 200.831L282.209 198.531L252.629 198.387Z" fill="#455A64"/>
<path d="M298.559 230.15V253.15C298.559 255.145 297.767 257.059 296.357 258.471C294.947 259.883 293.035 260.677 291.039 260.68H208.639C206.642 260.68 204.727 259.887 203.315 258.475C201.903 257.062 201.109 255.147 201.109 253.15V233.72L190.859 222.94L290.999 222.63C291.99 222.625 292.972 222.815 293.889 223.191C294.806 223.566 295.64 224.12 296.343 224.818C297.045 225.517 297.603 226.348 297.983 227.263C298.364 228.178 298.559 229.159 298.559 230.15V230.15Z" fill="#337ACC"/>
<path d="M213.26 236.55L288.03 236.2L288.02 233.9L213.25 234.25L213.26 236.55Z" fill="white"/>
<path d="M213.26 244.11L288.03 243.76L288.02 241.47L213.25 241.81L213.26 244.11Z" fill="white"/>
<path d="M242.814 249.041L213.234 249.185L213.246 251.485L242.825 251.34L242.814 249.041Z" fill="white"/>
<path d="M253.71 142.12C254.435 141.804 255.05 141.28 255.477 140.614C255.904 139.948 256.124 139.171 256.11 138.38C256.136 137.867 256.058 137.353 255.879 136.871C255.701 136.389 255.427 135.948 255.073 135.575C254.718 135.203 254.292 134.906 253.82 134.703C253.347 134.5 252.839 134.396 252.325 134.396C251.811 134.396 251.302 134.5 250.829 134.703C250.357 134.906 249.931 135.203 249.577 135.575C249.223 135.948 248.948 136.389 248.77 136.871C248.592 137.353 248.513 137.867 248.54 138.38C248.52 139.177 248.739 139.962 249.168 140.634C249.598 141.305 250.218 141.833 250.95 142.15C245.12 143.03 245.38 149.37 245.38 149.37L259.17 149.43C259.17 149.43 259.49 143 253.71 142.12Z" fill="#337ACC"/>
<path opacity="0.5" d="M253.71 142.12C254.435 141.804 255.05 141.28 255.477 140.614C255.904 139.948 256.124 139.171 256.11 138.38C256.136 137.867 256.058 137.353 255.879 136.871C255.701 136.389 255.427 135.948 255.073 135.575C254.718 135.203 254.292 134.906 253.82 134.703C253.347 134.5 252.839 134.396 252.325 134.396C251.811 134.396 251.302 134.5 250.829 134.703C250.357 134.906 249.931 135.203 249.577 135.575C249.223 135.948 248.948 136.389 248.77 136.871C248.592 137.353 248.513 137.867 248.54 138.38C248.52 139.177 248.739 139.962 249.168 140.634C249.598 141.305 250.218 141.833 250.95 142.15C245.12 143.03 245.38 149.37 245.38 149.37L259.17 149.43C259.17 149.43 259.49 143 253.71 142.12Z" fill="white"/>
<path d="M246.139 142.12C246.861 141.799 247.474 141.274 247.902 140.61C248.33 139.945 248.555 139.171 248.549 138.38C248.587 137.859 248.517 137.336 248.344 136.844C248.171 136.351 247.898 135.899 247.542 135.517C247.186 135.134 246.756 134.829 246.277 134.621C245.798 134.412 245.282 134.305 244.759 134.305C244.237 134.305 243.72 134.412 243.242 134.621C242.763 134.829 242.332 135.134 241.977 135.517C241.621 135.899 241.348 136.351 241.175 136.844C241.001 137.336 240.932 137.859 240.969 138.38C240.95 139.177 241.169 139.962 241.598 140.634C242.027 141.305 242.648 141.834 243.379 142.15C237.549 143.03 237.809 149.37 237.809 149.37L251.599 149.43C251.599 149.43 251.919 143 246.139 142.12Z" fill="#337ACC"/>
<path d="M267.226 152.231L230.156 152.063L230.135 156.663L267.205 156.831L267.226 152.231Z" fill="#337ACC"/>
<path opacity="0.3" d="M267.226 152.231L230.156 152.063L230.135 156.663L267.205 156.831L267.226 152.231Z" fill="white"/>
<path d="M198.64 282.52C198.622 282.341 198.622 282.16 198.64 281.98C198.7 281.44 198.874 280.919 199.15 280.45C199.608 279.674 200.312 279.072 201.15 278.74C202.308 278.424 203.514 278.319 204.71 278.43H227.64L304.85 278.59H305.44L305 279L294.9 289.84L294.97 289.66V296.91C294.97 297.45 294.97 297.91 294.97 298.51C294.928 299.353 294.636 300.165 294.13 300.84C293.624 301.515 292.927 302.024 292.13 302.3C291.605 302.478 291.053 302.559 290.5 302.54H279.73H256.42L217 302.46H203.51C202.931 302.491 202.351 302.458 201.78 302.36C200.975 302.185 200.24 301.774 199.67 301.179C199.1 300.584 198.72 299.832 198.58 299.02C198.521 298.526 198.501 298.028 198.52 297.53C198.52 295.62 198.52 293.88 198.52 292.31C198.52 289.18 198.52 286.75 198.57 285.07C198.57 284.26 198.57 283.64 198.57 283.19C198.57 282.74 198.57 282.55 198.57 282.55C198.57 282.55 198.57 282.77 198.57 283.19C198.57 283.61 198.57 284.26 198.57 285.07C198.57 286.75 198.57 289.18 198.62 292.31C198.62 293.88 198.62 295.62 198.62 297.53C198.603 298.011 198.626 298.493 198.69 298.97C198.821 299.729 199.177 300.431 199.712 300.986C200.247 301.54 200.936 301.921 201.69 302.08C202.242 302.163 202.802 302.19 203.36 302.16H209H217L256.46 302.1H290.53C291.022 302.118 291.513 302.047 291.98 301.89C292.917 301.561 293.687 300.875 294.12 299.98C294.334 299.536 294.456 299.053 294.48 298.56C294.48 298.06 294.48 297.51 294.48 296.99V289.64L294.55 289.57C298.02 285.86 301.43 282.2 304.67 278.75L304.85 279.18L227.65 278.85L204.72 278.7C203.547 278.571 202.361 278.659 201.22 278.96C200.572 279.216 200.003 279.637 199.568 280.181C199.133 280.725 198.848 281.372 198.74 282.06C198.714 282.215 198.681 282.369 198.64 282.52V282.52Z" fill="#455A64"/>
<path d="M285.57 288.58L210.8 288.24L210.81 285.94L285.58 286.29L285.57 288.58Z" fill="#455A64"/>
<path d="M255.244 293.53L255.232 295.83L285.572 295.978L285.583 293.678L255.244 293.53Z" fill="#455A64"/>
<path d="M295.93 323.54V339.29C295.93 340.351 295.508 341.368 294.758 342.118C294.008 342.869 292.991 343.29 291.93 343.29H203.87C202.809 343.29 201.791 342.869 201.041 342.118C200.291 341.368 199.87 340.351 199.87 339.29V330.68L189.76 319.86L291.93 319.54C292.991 319.54 294.008 319.961 294.758 320.712C295.508 321.462 295.93 322.479 295.93 323.54Z" fill="#337ACC"/>
<path d="M209.01 329.6L283.78 329.26L283.77 326.96L209 327.31L209.01 329.6Z" fill="white"/>
<path d="M209.01 337L283.78 336.65L283.77 334.36L209 334.7L209.01 337Z" fill="white"/>
<path d="M416.45 134.73C422.928 134.73 428.18 129.478 428.18 123C428.18 116.522 422.928 111.27 416.45 111.27C409.971 111.27 404.72 116.522 404.72 123C404.72 129.478 409.971 134.73 416.45 134.73Z" fill="#337ACC"/>
<path opacity="0.5" d="M416.45 134.73C422.928 134.73 428.18 129.478 428.18 123C428.18 116.522 422.928 111.27 416.45 111.27C409.971 111.27 404.72 116.522 404.72 123C404.72 129.478 409.971 134.73 416.45 134.73Z" fill="white"/>
<path d="M412.56 119.64C413 119.64 413.4 120.11 413.44 120.75C413.48 121.39 413.15 121.94 412.7 121.96C412.25 121.98 411.86 121.49 411.82 120.85C411.78 120.21 412.11 119.66 412.56 119.64Z" fill="#263238"/>
<path d="M413.65 116.69C413.65 116.86 412.65 116.81 411.65 117.19C410.65 117.57 409.84 118.19 409.72 118.07C409.6 117.95 410.21 117.07 411.45 116.63C412.69 116.19 413.7 116.54 413.65 116.69Z" fill="#263238"/>
<path d="M422.15 121.47C422.02 121.57 421.39 120.89 420.38 120.79C419.37 120.69 418.61 121.2 418.51 121.08C418.41 120.96 418.59 120.79 418.92 120.56C419.376 120.274 419.914 120.147 420.45 120.2C420.984 120.258 421.482 120.498 421.86 120.88C422.14 121.18 422.21 121.42 422.15 121.47Z" fill="#263238"/>
<path d="M423.16 119.51C423.07 119.65 422.16 119.16 420.85 119.12C419.54 119.08 418.59 119.48 418.51 119.32C418.811 119.009 419.183 118.776 419.594 118.638C420.004 118.501 420.442 118.464 420.87 118.53C422.33 118.58 423.26 119.4 423.16 119.51Z" fill="#263238"/>
<path d="M422.33 122.77C422.336 123.581 422.076 124.371 421.59 125.02C421.079 125.875 420.361 126.589 419.502 127.094C418.643 127.599 417.671 127.88 416.675 127.911C415.679 127.942 414.691 127.721 413.802 127.27C412.914 126.819 412.153 126.152 411.59 125.33C411.057 124.717 410.75 123.941 410.72 123.13C411.064 123.829 411.465 124.498 411.92 125.13C412.477 125.843 413.195 126.415 414.015 126.8C414.835 127.184 415.733 127.369 416.638 127.341C417.543 127.313 418.429 127.071 419.223 126.637C420.017 126.202 420.698 125.587 421.21 124.84C421.631 124.177 422.005 123.485 422.33 122.77V122.77Z" fill="#263238"/>
<path d="M88.2197 330.49C88.1194 333.751 87.0545 336.909 85.1595 339.565C83.2646 342.221 80.6247 344.256 77.5737 345.412C74.5226 346.568 71.1972 346.794 68.018 346.06C64.8388 345.327 61.9484 343.667 59.7122 341.291C57.4761 338.915 55.9945 335.929 55.4548 332.712C54.9151 329.494 55.3416 326.188 56.6802 323.213C58.0189 320.237 60.2096 317.725 62.9756 315.995C65.7415 314.264 68.9585 313.392 72.2197 313.49C74.3869 313.554 76.52 314.046 78.4972 314.935C80.4744 315.825 82.2569 317.095 83.7429 318.674C85.2288 320.253 86.389 322.109 87.1572 324.136C87.9253 326.164 88.2864 328.323 88.2197 330.49V330.49Z" fill="#337ACC"/>
<path opacity="0.5" d="M88.2197 330.49C88.1194 333.751 87.0545 336.909 85.1595 339.565C83.2646 342.221 80.6247 344.256 77.5737 345.412C74.5226 346.568 71.1972 346.794 68.018 346.06C64.8388 345.327 61.9484 343.667 59.7122 341.291C57.4761 338.915 55.9945 335.929 55.4548 332.712C54.9151 329.494 55.3416 326.188 56.6802 323.213C58.0189 320.237 60.2096 317.725 62.9756 315.995C65.7415 314.264 68.9585 313.392 72.2197 313.49C74.3869 313.554 76.52 314.046 78.4972 314.935C80.4744 315.825 82.2569 317.095 83.7429 318.674C85.2288 320.253 86.389 322.109 87.1572 324.136C87.9253 326.164 88.2864 328.323 88.2197 330.49V330.49Z" fill="white"/>
<path d="M68.4799 325.45C68.1881 325.07 67.7594 324.818 67.285 324.749C66.8106 324.68 66.328 324.799 65.9399 325.08C65.5643 325.334 65.2476 325.665 65.0112 326.051C64.7748 326.438 64.6243 326.87 64.5699 327.32C64.5279 326.862 64.3884 326.418 64.1607 326.017C63.9331 325.617 63.6225 325.271 63.2499 325C62.8752 324.7 62.3993 324.555 61.9209 324.596C61.4424 324.637 60.9981 324.861 60.6799 325.22C60.3306 325.725 60.1809 326.341 60.2599 326.95C60.2935 327.561 60.4904 328.151 60.8299 328.66C61.8454 329.931 63.0903 330.999 64.4999 331.81C65.8895 331.075 67.1225 330.077 68.1299 328.87C68.4974 328.383 68.7286 327.806 68.7999 327.2C68.9162 326.597 68.802 325.973 68.4799 325.45V325.45Z" fill="#337ACC"/>
<path d="M83.0002 325.86C82.7086 325.479 82.2789 325.228 81.8039 325.16C81.3288 325.093 80.8463 325.215 80.4602 325.5C80.0819 325.75 79.7631 326.081 79.5263 326.468C79.2896 326.855 79.1407 327.289 79.0902 327.74C79.0482 327.282 78.9087 326.837 78.6811 326.437C78.4534 326.037 78.1429 325.69 77.7702 325.42C77.3965 325.117 76.9201 324.971 76.4409 325.012C75.9617 325.053 75.5171 325.278 75.2002 325.64C74.8491 326.144 74.6993 326.761 74.7802 327.37C74.8089 327.982 75.0062 328.573 75.3502 329.08C76.3657 330.35 77.6106 331.419 79.0202 332.23C80.4055 331.489 81.6374 330.491 82.6502 329.29C83.0181 328.799 83.2493 328.219 83.3202 327.61C83.4346 327.007 83.3206 326.383 83.0002 325.86V325.86Z" fill="#337ACC"/>
<path d="M77.0802 334.05C76.9178 335.415 76.2445 336.668 75.1959 337.557C74.1472 338.446 72.8009 338.904 71.4277 338.841C70.0545 338.778 68.7561 338.197 67.7938 337.215C66.8314 336.234 66.2763 334.924 66.2402 333.55L77.0802 334.05Z" fill="white"/>
<path d="M134.25 332.4C134.54 330.71 133.9 324.53 133.9 324.53C133.9 324.53 127.42 323.84 127.03 317.42C126.64 311 127.03 296.18 127.03 296.18L138.83 290.41L151.83 300.24L149.83 332.37L134.25 332.4Z" fill="#B78876"/>
<path d="M128.819 306.92C128.819 307.137 128.906 307.346 129.059 307.499C129.213 307.653 129.422 307.74 129.639 307.74C129.857 307.74 130.065 307.653 130.219 307.499C130.373 307.346 130.459 307.137 130.459 306.92C130.459 306.812 130.438 306.705 130.397 306.606C130.356 306.506 130.295 306.416 130.219 306.34C130.143 306.264 130.053 306.203 129.953 306.162C129.854 306.121 129.747 306.1 129.639 306.1C129.532 306.1 129.425 306.121 129.326 306.162C129.226 306.203 129.136 306.264 129.059 306.34C128.983 306.416 128.923 306.506 128.882 306.606C128.841 306.705 128.819 306.812 128.819 306.92V306.92Z" fill="#263238"/>
<path d="M127.619 306.33C127.719 306.43 128.329 305.92 129.209 305.87C130.089 305.82 130.759 306.25 130.859 306.13C130.959 306.01 130.789 305.88 130.499 305.68C130.109 305.424 129.646 305.301 129.179 305.33C128.713 305.362 128.268 305.54 127.909 305.84C127.649 306.07 127.559 306.28 127.619 306.33Z" fill="#263238"/>
<path d="M139.21 307.59C139.663 307.59 140.03 307.223 140.03 306.77C140.03 306.317 139.663 305.95 139.21 305.95C138.757 305.95 138.39 306.317 138.39 306.77C138.39 307.223 138.757 307.59 139.21 307.59Z" fill="#263238"/>
<path d="M137.179 306.17C137.289 306.28 137.889 305.76 138.779 305.72C139.669 305.68 140.329 306.1 140.419 305.98C140.509 305.86 140.359 305.73 140.069 305.53C139.678 305.275 139.215 305.152 138.749 305.18C138.282 305.207 137.836 305.386 137.479 305.69C137.209 305.92 137.129 306.13 137.179 306.17Z" fill="#263238"/>
<path d="M134.139 313.56C133.666 313.437 133.179 313.376 132.689 313.38C132.469 313.38 132.249 313.33 132.199 313.17C132.172 312.922 132.217 312.672 132.329 312.45L132.929 310.62C133.502 309.064 133.954 307.466 134.279 305.84C133.607 307.355 133.043 308.915 132.589 310.51C132.379 311.15 132.189 311.77 132.009 312.35C131.872 312.64 131.84 312.969 131.919 313.28C131.953 313.359 132.005 313.43 132.071 313.485C132.137 313.541 132.215 313.58 132.299 313.6C132.425 313.619 132.553 313.619 132.679 313.6C133.166 313.645 133.656 313.632 134.139 313.56Z" fill="#263238"/>
<path d="M137.069 314.4C135.774 315.22 134.305 315.723 132.779 315.87C133.104 316.319 133.571 316.646 134.105 316.797C134.639 316.947 135.207 316.913 135.719 316.7C137.609 315.91 137.069 314.4 137.069 314.4Z" fill="white"/>
<path d="M133.899 324.53C136.953 324.402 139.906 323.403 142.409 321.65C142.409 321.65 140.479 326.37 134.039 326.11L133.899 324.53Z" fill="#A36957"/>
<path d="M160.339 305C160.339 305 162.959 319.81 150.449 322.48L150.819 304.64L160.339 305Z" fill="#263238"/>
<path d="M159.929 301.72C159.149 298.551 157.688 295.589 155.649 293.04C157.449 293.79 158.649 294.54 158.899 294.3C159.149 294.06 158.689 293.61 157.899 292.94C156.874 292.1 155.7 291.459 154.439 291.05L153.85 290.89C154.675 290.561 155.429 290.075 156.07 289.46C156.837 288.741 157.367 287.807 157.59 286.78C157.813 285.753 157.719 284.682 157.319 283.71C156.868 282.883 156.181 282.209 155.346 281.773C154.511 281.337 153.566 281.158 152.629 281.26C151.699 281.391 150.813 281.739 150.042 282.276C149.27 282.813 148.636 283.523 148.189 284.35C147.974 284.745 147.797 285.161 147.659 285.59C147.69 284.879 147.763 284.171 147.879 283.47C148.279 281 149.199 279.15 149.049 279.07C148.101 280.326 147.51 281.815 147.339 283.38C147.339 283.62 147.279 283.85 147.249 284.08C147.053 283.441 146.813 282.816 146.529 282.21C145.919 280.92 145.339 280.21 145.169 280.32C144.819 280.49 145.959 283.2 146.429 286.86C145.305 286.485 144.134 286.267 142.949 286.21C140.769 286.21 137.149 285.21 132.029 289.32C130.296 290.427 128.797 291.864 127.619 293.55C125.927 296.026 124.974 298.932 124.869 301.93C124.839 302.83 124.896 303.731 125.039 304.62C125.07 304.948 125.155 305.269 125.289 305.57C125.389 305.57 125.099 304.18 125.289 301.95C125.403 300.293 125.771 298.664 126.379 297.12C125.617 299.789 125.786 302.639 126.859 305.2L138.309 303.41C137.569 300.9 138.11 296.92 138.46 294.97C140.46 304.32 148.509 308.81 148.509 308.81L160.559 306.92C160.389 305.83 160.189 302.7 159.929 301.72Z" fill="#263238"/>
<path d="M187.649 444.94C188.019 445.12 217.559 450.94 216.469 446.94C215.379 442.94 187.909 436.66 187.909 436.66L187.649 444.94Z" fill="#337ACC"/>
<path d="M201.079 442.33C201.219 442.33 201.429 443.01 201.419 443.9C201.409 444.79 201.199 445.49 201.059 445.47C200.919 445.45 200.889 444.75 200.899 443.9C200.909 443.05 200.939 442.34 201.079 442.33Z" fill="#263238"/>
<path d="M199.51 441.79C199.64 441.79 199.9 442.58 199.8 443.62C199.7 444.66 199.33 445.42 199.2 445.37C199.07 445.32 199.2 444.54 199.28 443.57C199.36 442.6 199.36 441.81 199.51 441.79Z" fill="#263238"/>
<path d="M197.599 441.62C197.739 441.62 197.939 442.41 197.959 443.41C197.979 444.41 197.809 445.21 197.669 445.2C197.529 445.19 197.459 444.4 197.439 443.42C197.419 442.44 197.459 441.64 197.599 441.62Z" fill="#263238"/>
<path d="M194 438.74C194.155 438.732 194.31 438.749 194.46 438.79C194.76 438.79 195.2 438.93 195.76 439.06C196.89 439.3 198.52 439.69 200.51 440.24C202.5 440.79 204.86 441.48 207.44 442.36C208.73 442.8 210.1 443.25 211.44 443.84C212.892 444.426 214.227 445.269 215.38 446.33C215.56 446.473 215.706 446.654 215.81 446.86C215.873 447.005 215.883 447.169 215.837 447.321C215.791 447.473 215.693 447.603 215.56 447.69C215.175 447.89 214.743 447.983 214.31 447.96C213.54 448.02 212.78 448.05 212.04 448.07C210.55 448.07 209.11 448.07 207.74 447.96C205.01 447.79 202.57 447.45 200.53 447.13C198.49 446.81 196.85 446.49 195.72 446.26L194.42 445.99C194.264 445.969 194.113 445.925 193.97 445.86C194.567 445.879 195.163 445.946 195.75 446.06L200.58 446.76C202.58 447.04 205.06 447.34 207.77 447.49C209.13 447.56 210.55 447.6 212.03 447.56C212.76 447.56 213.52 447.51 214.27 447.45C214.614 447.469 214.957 447.404 215.27 447.26C215.36 447.19 215.37 447.15 215.34 447.06C215.256 446.924 215.152 446.802 215.03 446.7C213.919 445.684 212.635 444.874 211.24 444.31C209.9 443.73 208.54 443.31 207.24 442.81C204.67 441.92 202.33 441.18 200.36 440.59C198.39 440 196.77 439.59 195.66 439.25C195.096 439.116 194.541 438.946 194 438.74V438.74Z" fill="#263238"/>
<path d="M209.69 443.13C209.83 443.18 209.54 444.3 209.69 445.68C209.84 447.06 210.22 448.13 210.08 448.2C209.547 447.475 209.231 446.613 209.169 445.716C209.108 444.818 209.302 443.921 209.73 443.13H209.69Z" fill="#263238"/>
<path d="M89.9995 439.09C89.5895 439.09 59.7795 443.2 62.0895 446.55C64.3995 449.9 92.4395 446.96 92.4395 446.96L89.9995 439.09Z" fill="#337ACC"/>
<path d="M78.0992 445.94C77.9792 446 77.5492 445.4 77.2692 444.56C76.9892 443.72 76.9992 443 77.0992 443C77.1992 443 77.4892 443.63 77.7592 444.44C78.0292 445.25 78.2292 445.87 78.0992 445.94Z" fill="#263238"/>
<path d="M79.7693 445.93C79.6493 446 79.1393 445.31 78.8893 444.3C78.6393 443.29 78.7493 442.44 78.8893 442.44C79.0293 442.44 79.1593 443.23 79.3993 444.17C79.6393 445.11 79.8993 445.86 79.7693 445.93Z" fill="#263238"/>
<path d="M81.6191 445.46C81.4891 445.52 81.0491 444.83 80.6991 443.89C80.3491 442.95 80.2491 442.14 80.3891 442.1C80.5291 442.06 80.8491 442.8 81.1891 443.71C81.5291 444.62 81.7491 445.4 81.6191 445.46Z" fill="#263238"/>
<path d="M85.9994 447C85.8553 447.056 85.7036 447.089 85.5494 447.1L84.2294 447.27C83.0794 447.41 81.4194 447.57 79.3594 447.7C77.2994 447.83 74.8394 447.94 72.1094 447.96C70.7394 447.96 69.3093 447.96 67.8093 447.87C66.2465 447.802 64.7102 447.442 63.2794 446.81C63.0597 446.732 62.8588 446.61 62.6894 446.45C62.5903 446.328 62.5361 446.176 62.5361 446.02C62.5361 445.863 62.5903 445.711 62.6894 445.59C62.9837 445.27 63.361 445.038 63.7794 444.92C64.4894 444.61 65.1894 444.34 65.8894 444.07C67.2894 443.56 68.6693 443.14 69.9893 442.77C72.6293 442.04 75.0494 441.57 77.0794 441.21C79.1094 440.85 80.7694 440.61 81.9094 440.46L83.2294 440.29C83.3817 440.265 83.537 440.265 83.6894 440.29C83.1172 440.465 82.532 440.596 81.9394 440.68L77.1494 441.59C75.1494 442 72.7294 442.51 70.1494 443.25C68.8394 443.63 67.4794 444.05 66.1494 444.57C65.4594 444.84 64.7593 445.11 64.0593 445.41C63.7332 445.504 63.4347 445.675 63.1894 445.91C63.1294 446.01 63.1294 446.04 63.1894 446.12C63.3145 446.223 63.4566 446.304 63.6094 446.36C64.9864 446.955 66.4606 447.294 67.9594 447.36C69.4194 447.48 70.8594 447.47 72.2194 447.48C74.9394 447.48 77.3893 447.42 79.4493 447.34C81.5093 447.26 83.1694 447.14 84.3194 447.07C84.8772 447.009 85.4384 446.986 85.9994 447V447Z" fill="#263238"/>
<path d="M69.71 448C69.55 448 69.47 446.85 68.91 445.58C68.35 444.31 67.61 443.43 67.72 443.33C67.83 443.23 68.81 443.98 69.39 445.33C69.8355 446.146 69.9501 447.102 69.71 448Z" fill="#263238"/>
<path d="M182.43 402.9H167.26L111.26 404.35L95.2596 402.28C92.7696 401.73 91.1296 401.5 90.5996 401.67C88.4504 402.566 86.567 403.998 85.1296 405.83C79.0296 413.11 82.8696 424.33 92.0496 426.83L100.67 429.17L81.8096 435.23L88.1796 453.31C88.1796 453.31 116.34 447.22 143.65 440.79L187.35 452.61L193.65 432.32L186.24 429.91C190.89 428.49 193.83 427.37 194.24 426.69C196.99 422.43 201.86 402.62 182.36 402.92" fill="#455A64"/>
<path opacity="0.2" d="M185.999 429.98L153.519 443.43L143.699 440.77L185.999 429.98Z" fill="black"/>
<path opacity="0.2" d="M100.81 404.42L142.39 416.33L174.06 405.53L100.81 404.42Z" fill="black"/>
<path d="M94.8898 452C94.3588 451.177 93.9131 450.303 93.5598 449.39C92.8198 447.74 91.8598 445.39 90.9198 442.83C89.9798 440.27 89.2098 437.83 88.7198 436.11C88.4033 435.184 88.1789 434.229 88.0498 433.26C88.4572 434.144 88.7916 435.061 89.0498 436C89.6298 437.71 90.4398 440.07 91.3798 442.65C92.3198 445.23 93.2298 447.56 93.8798 449.24C94.2863 450.133 94.6239 451.055 94.8898 452V452Z" fill="#263238"/>
<path d="M195.13 409.64C195.049 409.689 194.961 409.726 194.87 409.75L194.09 410.04L191.09 411.1L180 414.87C170.59 418.01 157.57 422.26 143.14 426.79C128.71 431.32 115.59 435.27 106.08 438.07L94.7997 441.33L91.7297 442.18L90.9196 442.39C90.8289 442.419 90.7348 442.436 90.6396 442.44L90.9097 442.34L91.6996 442.08L94.6996 441.13L105.93 437.71C115.42 434.83 128.51 430.82 142.93 426.29C157.35 421.76 170.39 417.57 179.82 414.52L191 410.91L194.05 409.91L194.84 409.67C194.934 409.645 195.032 409.635 195.13 409.64V409.64Z" fill="#263238"/>
<path d="M164.849 408.91C164.648 409.025 164.433 409.116 164.209 409.18L162.349 409.86C160.729 410.44 158.349 411.26 155.449 412.25C149.609 414.25 141.519 416.89 132.569 419.76C123.619 422.63 115.479 425.16 109.569 426.94C106.569 427.83 104.219 428.53 102.569 429L100.659 429.53C100.437 429.595 100.209 429.645 99.9795 429.68C100.186 429.571 100.404 429.487 100.629 429.43L102.509 428.81L109.509 426.59L132.449 419.27L155.369 411.9L162.319 409.67L164.219 409.08C164.423 409.001 164.634 408.944 164.849 408.91V408.91Z" fill="#263238"/>
<path d="M142.18 416.26C142.18 416.4 132.85 413.86 121.42 410.59C109.99 407.32 100.77 404.59 100.81 404.42C100.85 404.25 110.14 406.82 121.56 410.09C132.98 413.36 142.22 416.12 142.18 416.26Z" fill="#263238"/>
<path d="M187.589 430.94C186.564 434.315 185.37 437.636 184.009 440.89C181.899 446.33 180.079 450.69 179.949 450.64C180.971 447.267 182.166 443.95 183.529 440.7C185.639 435.26 187.459 430.89 187.589 430.94Z" fill="#263238"/>
<path d="M183.69 439.32C180.931 438.844 178.203 438.206 175.52 437.41C172.806 436.769 170.134 435.96 167.52 434.99C170.278 435.463 173.007 436.101 175.69 436.9C178.403 437.541 181.075 438.349 183.69 439.32Z" fill="#263238"/>
<path d="M121.489 422.74C120.965 422.676 120.447 422.573 119.939 422.43L115.759 421.43C112.239 420.53 107.369 419.31 102.059 417.71C97.5076 416.372 93.0481 414.738 88.7093 412.82C87.0593 412.06 85.7093 411.4 84.8493 410.91C84.3707 410.684 83.9153 410.413 83.4893 410.1C83.9882 410.272 84.473 410.482 84.9393 410.73C85.8593 411.16 87.1893 411.73 88.8593 412.48C93.2221 414.292 97.6784 415.871 102.209 417.21C107.509 418.81 112.359 420.08 115.859 421.07L119.989 422.26C120.504 422.369 121.007 422.53 121.489 422.74V422.74Z" fill="#263238"/>
<path d="M152.229 331.51H150.999L150.819 327.25L133.929 328.25C133.929 328.25 134.099 330.25 134.089 331.64C123.689 332.64 107.019 337.98 106.619 361.39L119.959 361.7C118.829 372.44 118.959 378.85 117.869 382.88C116.009 389.54 110.119 403.6 111.299 404.31C112.479 405.02 167.219 406.03 169.829 404.61C172.439 403.19 167.689 384.84 166.499 379.86C165.749 376.68 165.589 369.4 165.569 363.77L180.889 363.08C180.889 363.08 181.999 331.42 152.229 331.51Z" fill="#337ACC"/>
<path d="M150.91 331.34C150.103 331.578 149.27 331.719 148.43 331.76C146.88 331.94 144.74 332.11 142.37 332.16C140 332.21 137.86 332.16 136.31 332.02C135.467 332.006 134.628 331.899 133.81 331.7C134.643 331.601 135.483 331.584 136.32 331.65C137.87 331.65 140 331.65 142.32 331.65C144.64 331.65 146.81 331.49 148.32 331.41C149.179 331.303 150.046 331.28 150.91 331.34V331.34Z" fill="#263238"/>
<path d="M136.999 328.11C137.149 328.11 137.259 328.93 137.259 329.94C137.259 330.95 137.149 331.78 136.999 331.78C136.849 331.78 136.739 330.96 136.739 329.94C136.739 328.92 136.809 328.11 136.999 328.11Z" fill="#263238"/>
<path d="M141.469 327.79C141.609 327.79 141.749 328.69 141.779 329.79C141.871 330.463 141.802 331.148 141.579 331.79C141.429 331.79 141.289 330.89 141.259 329.79C141.165 329.116 141.237 328.429 141.469 327.79V327.79Z" fill="#263238"/>
<path d="M146.129 327.63C146.269 327.63 146.469 328.51 146.489 329.63C146.509 330.75 146.359 331.63 146.209 331.63C145.991 330.987 145.909 330.306 145.969 329.63C145.999 328.55 145.999 327.64 146.129 327.63Z" fill="#263238"/>
<path d="M149.51 327.47C149.66 327.47 149.76 328.35 149.9 329.42C150.04 330.49 150.15 331.37 150.01 331.42C149.87 331.47 149.52 330.61 149.39 329.49C149.26 328.37 149.37 327.46 149.51 327.47Z" fill="#263238"/>
<path d="M122.07 361.45C121.8 359.798 121.7 358.122 121.77 356.45C121.664 354.78 121.737 353.104 121.99 351.45C122.254 353.102 122.354 354.777 122.29 356.45C122.383 358.12 122.309 359.795 122.07 361.45Z" fill="#263238"/>
<path d="M165 363.12C164.595 361.346 164.354 359.538 164.28 357.72C164.038 355.914 163.975 354.089 164.09 352.27C164.732 355.85 165.036 359.483 165 363.12V363.12Z" fill="#263238"/>
<path d="M122.069 361.45C121.307 361.551 120.536 361.574 119.769 361.52H114.259H108.739C107.975 361.575 107.208 361.551 106.449 361.45C107.194 361.258 107.96 361.161 108.729 361.16C110.139 361.05 112.099 360.97 114.259 360.98C116.419 360.99 118.379 361.06 119.789 361.17C120.558 361.173 121.323 361.267 122.069 361.45Z" fill="#263238"/>
<path d="M180.86 363.12C178.152 363.383 175.429 363.47 172.71 363.38C169.987 363.47 167.261 363.383 164.55 363.12C167.262 362.862 169.987 362.775 172.71 362.86C175.429 362.776 178.151 362.862 180.86 363.12V363.12Z" fill="#263238"/>
<path d="M180.19 363.25C180.19 363.25 184.19 400.58 172.75 404.25C161.31 407.92 138.75 390.54 138.75 390.54L145.25 377.38C145.25 377.38 160.25 387.8 163.49 385.45C166.73 383.1 165.04 363.25 165.04 363.25H180.19Z" fill="#B78876"/>
<path d="M106.81 361.45C106.81 361.45 102.74 398.4 114.17 402.08C125.6 405.76 148.17 388.36 148.17 388.36L141.66 375.2C141.66 375.2 126.57 384.85 123.44 382.41C121.63 380.99 121.58 361.64 121.58 361.64C116.26 361.41 111.33 361.18 106.81 361.45Z" fill="#B78876"/>
<path d="M173.069 369.15L165.479 406.35C165.479 406.35 118.839 405.99 118.359 405.85C117.879 405.71 113.359 369.15 113.359 369.15H173.069Z" fill="#263238"/>
<path d="M139.57 388C139.532 388.56 139.663 389.119 139.947 389.604C140.23 390.089 140.653 390.477 141.16 390.718C141.667 390.96 142.235 391.043 142.79 390.957C143.345 390.872 143.862 390.621 144.273 390.238C144.683 389.855 144.97 389.358 145.094 388.81C145.218 388.262 145.175 387.69 144.97 387.167C144.765 386.644 144.407 386.195 143.943 385.878C143.48 385.561 142.932 385.391 142.37 385.39C141.653 385.368 140.957 385.63 140.433 386.119C139.909 386.608 139.599 387.284 139.57 388V388Z" fill="white"/>
<path d="M149.369 306.38C149.791 306.118 150.272 305.966 150.768 305.937C151.263 305.907 151.759 306.001 152.209 306.21C152.784 306.674 153.163 307.338 153.269 308.07C153.403 308.662 153.396 309.277 153.249 309.866C153.101 310.455 152.817 311.001 152.419 311.46C152.004 311.902 151.45 312.189 150.849 312.271C150.248 312.353 149.637 312.225 149.119 311.91" fill="#B78876"/>
<path d="M150.569 310.89C150.569 310.81 150.889 310.76 151.259 310.48C151.503 310.321 151.701 310.101 151.831 309.841C151.961 309.58 152.019 309.29 151.999 309C151.971 308.713 151.868 308.439 151.701 308.204C151.535 307.969 151.31 307.781 151.049 307.66C150.629 307.46 150.309 307.47 150.299 307.39C150.289 307.31 150.619 307.16 151.179 307.3C151.545 307.408 151.87 307.623 152.112 307.918C152.354 308.213 152.502 308.573 152.538 308.953C152.573 309.333 152.494 309.714 152.311 310.049C152.128 310.383 151.848 310.655 151.509 310.83C150.929 311.05 150.569 311 150.569 310.89Z" fill="#A36957"/>
<path d="M380.599 435.92L378.599 425.36L359.649 428.72L362.399 444.55L363.589 444.42C368.879 443.79 390.349 440.51 393.649 438.78C397.379 436.85 380.599 435.92 380.599 435.92Z" fill="#337ACC"/>
<path d="M394 437.73C394 437.91 387 439.36 378.24 440.97C369.48 442.58 362.4 443.74 362.37 443.56C362.34 443.38 369.37 441.94 378.12 440.33C386.87 438.72 393.94 437.56 394 437.73Z" fill="#263238"/>
<path d="M381.329 438C381.159 437.94 381.189 437.36 381.499 436.74C381.809 436.12 382.239 435.74 382.389 435.83C382.539 435.92 382.389 436.44 382.079 437.02C381.769 437.6 381.499 438.07 381.329 438Z" fill="#263238"/>
<path d="M382.67 438.49C382.49 438.49 382.46 437.82 382.67 437.09C382.88 436.36 383.34 435.88 383.5 435.96C383.66 436.04 383.5 436.62 383.29 437.3C383.08 437.98 382.85 438.52 382.67 438.49Z" fill="#263238"/>
<path d="M368 442.44C367.93 442.51 367.6 442.28 367.1 441.89C366.481 441.374 365.811 440.921 365.1 440.54C364.456 440.187 363.734 440.001 363 440C362.41 440 362.05 440.19 362 440.1C361.95 440.01 362.26 439.71 362.94 439.54C363.819 439.365 364.732 439.503 365.52 439.93C366.281 440.339 366.959 440.884 367.52 441.54C367.88 442 368.09 442.38 368 442.44Z" fill="#263238"/>
<path d="M381 436C381.12 436.13 380.86 436.56 380.36 436.86C379.86 437.16 379.36 437.18 379.3 437.01C379.24 436.84 379.59 436.56 380.03 436.29C380.47 436.02 380.9 435.88 381 436Z" fill="#263238"/>
<path d="M380.54 435.05C380.54 435.23 380.11 435.47 379.47 435.6C378.83 435.73 378.3 435.68 378.28 435.5C378.26 435.32 378.74 435.08 379.34 434.96C379.94 434.84 380.49 434.88 380.54 435.05Z" fill="#263238"/>
<path d="M403.4 324.27C397.53 312.42 366.07 266.58 366.07 266.58L349.28 268.34V268.24L330.49 270.3L320.13 271.44L357.64 435.27L383.58 434.8L377.34 404.49C381.63 393.74 406.65 330.83 403.4 324.27ZM376.64 331.34L367.37 356.23L356.87 305.23L376.64 331.34Z" fill="#263238"/>
<path d="M355.83 190.91C355.59 189.2 356.51 182.09 356.51 182.09C356.51 182.09 363.04 181.61 363.65 175.17C364.26 168.73 364.33 153.82 364.33 153.82L352.66 147.64L339.29 157.1L335.83 166.1L340.39 177.28L340.25 180.98V189.45L355.83 190.91Z" fill="#FFBE9D"/>
<path d="M363.46 164.62C363.455 164.785 363.403 164.944 363.308 165.079C363.213 165.213 363.08 165.316 362.926 165.375C362.773 165.434 362.605 165.445 362.444 165.409C362.284 165.372 362.138 165.288 362.025 165.168C361.913 165.049 361.838 164.898 361.811 164.736C361.784 164.573 361.806 164.407 361.874 164.257C361.942 164.107 362.053 163.981 362.193 163.894C362.333 163.807 362.495 163.764 362.66 163.77C362.768 163.773 362.875 163.797 362.974 163.841C363.073 163.885 363.163 163.949 363.237 164.028C363.312 164.107 363.37 164.2 363.408 164.302C363.446 164.403 363.464 164.512 363.46 164.62V164.62Z" fill="#263238"/>
<path d="M363.52 163.75C363.41 163.86 362.81 163.32 361.93 163.24C361.05 163.16 360.36 163.57 360.27 163.45C360.18 163.33 360.34 163.2 360.64 163.01C361.043 162.768 361.513 162.662 361.98 162.71C362.444 162.749 362.883 162.939 363.23 163.25C363.49 163.5 363.57 163.71 363.52 163.75Z" fill="#263238"/>
<path d="M353 163.61C353.132 163.707 353.233 163.841 353.289 163.995C353.346 164.149 353.355 164.317 353.316 164.476C353.277 164.636 353.192 164.78 353.071 164.891C352.95 165.002 352.799 165.075 352.637 165.1C352.475 165.125 352.309 165.102 352.16 165.032C352.011 164.963 351.886 164.851 351.801 164.711C351.715 164.571 351.673 164.409 351.68 164.245C351.687 164.081 351.743 163.922 351.84 163.79C351.904 163.702 351.985 163.627 352.078 163.571C352.171 163.514 352.275 163.476 352.382 163.46C352.49 163.443 352.6 163.447 352.706 163.473C352.812 163.499 352.912 163.545 353 163.61V163.61Z" fill="#263238"/>
<path d="M353.65 163.44C353.54 163.54 352.95 163 352.06 162.93C351.17 162.86 350.49 163.26 350.4 163.13C350.31 163 350.47 162.89 350.77 162.7C351.172 162.457 351.642 162.348 352.11 162.39C352.578 162.432 353.021 162.625 353.37 162.94C353.63 163.18 353.71 163.39 353.65 163.44Z" fill="#263238"/>
<path d="M356.62 171.06C357.099 170.953 357.59 170.906 358.08 170.92C358.31 170.92 358.53 170.92 358.59 170.73C358.62 170.481 358.582 170.229 358.48 170C358.31 169.41 358.12 168.79 357.93 168.14C357.41 166.555 357.009 164.934 356.73 163.29C356.953 163.726 357.127 164.186 357.25 164.66C357.53 165.52 357.9 166.71 358.25 168.04C358.43 168.69 358.61 169.32 358.77 169.91C358.896 170.207 358.918 170.539 358.83 170.85C358.794 170.928 358.74 170.996 358.672 171.048C358.604 171.1 358.525 171.135 358.44 171.15C358.311 171.169 358.179 171.169 358.05 171.15C357.572 171.177 357.092 171.146 356.62 171.06V171.06Z" fill="#263238"/>
<path d="M353.659 171.8C352.769 171.18 356.089 173.37 357.909 173.42C357.569 173.868 357.087 174.186 356.541 174.322C355.996 174.459 355.42 174.405 354.909 174.17C353.059 173.3 353.659 171.8 353.659 171.8Z" fill="white"/>
<path d="M356.51 182.09C353.446 181.864 350.511 180.768 348.05 178.93C348.05 178.93 349.83 183.73 356.32 183.67L356.51 182.09Z" fill="#EB996E"/>
<path d="M341.149 167.9C341.149 167.9 341.059 167.97 340.899 168.06C340.674 168.166 340.417 168.183 340.179 168.11C339.81 167.907 339.502 167.609 339.287 167.247C339.073 166.885 338.96 166.471 338.959 166.05C338.915 165.579 338.976 165.104 339.139 164.66C339.181 164.486 339.264 164.324 339.383 164.19C339.502 164.055 339.652 163.952 339.819 163.89C339.927 163.852 340.044 163.853 340.15 163.894C340.256 163.934 340.344 164.011 340.399 164.11C340.479 164.26 340.449 164.38 340.479 164.38C340.509 164.38 340.599 164.28 340.539 164.06C340.5 163.925 340.416 163.809 340.299 163.73C340.222 163.676 340.134 163.638 340.041 163.62C339.948 163.601 339.852 163.601 339.759 163.62C339.537 163.678 339.332 163.792 339.166 163.951C339 164.111 338.877 164.31 338.809 164.53C338.605 165.023 338.523 165.558 338.569 166.09C338.575 166.581 338.725 167.061 339.001 167.468C339.276 167.875 339.665 168.192 340.119 168.38C340.269 168.415 340.424 168.415 340.573 168.38C340.722 168.345 340.861 168.277 340.979 168.18C341.149 168 341.169 167.91 341.149 167.9Z" fill="#EB996E"/>
<path d="M366 154.89C365.648 155.008 365.281 155.079 364.91 155.1C366.126 154.462 367.125 153.477 367.78 152.27C368.259 151.436 368.511 150.492 368.511 149.53C368.511 148.568 368.259 147.624 367.78 146.79C367.264 145.983 366.469 145.395 365.547 145.137C364.625 144.879 363.64 144.969 362.78 145.39C363.111 144.702 363.181 143.917 362.977 143.181C362.773 142.445 362.308 141.809 361.67 141.39C361.006 140.997 360.263 140.757 359.494 140.69C358.726 140.622 357.952 140.728 357.23 141C355.79 141.555 354.441 142.324 353.23 143.28C353.139 142.763 352.926 142.275 352.607 141.857C352.289 141.439 351.875 141.104 351.4 140.88C350.445 140.437 349.376 140.3 348.34 140.49C346.835 140.748 345.446 141.461 344.361 142.535C343.275 143.608 342.545 144.988 342.27 146.49C341.798 146.006 341.209 145.651 340.56 145.461C339.912 145.27 339.225 145.25 338.566 145.401C337.907 145.553 337.298 145.872 336.798 146.327C336.298 146.782 335.923 147.358 335.71 148C335.714 148.047 335.714 148.093 335.71 148.14C335.111 148.4 334.607 148.84 334.27 149.4C333.986 149.878 333.81 150.412 333.757 150.965C333.703 151.518 333.773 152.077 333.96 152.6C334.343 153.628 335.043 154.507 335.96 155.11C336.311 155.357 336.622 155.657 336.88 156C337.078 156.299 337.198 156.643 337.23 157C337.14 159.16 336.04 161.2 335.5 163.32C334.76 166.26 336.39 170.27 337.33 173.15C338.27 176.03 338.6 177.15 340.43 177.38L340.71 169.64C338.71 171.28 336.04 165.64 337.79 163.39C339.54 161.14 341.4 161.91 341.72 163.33C341.844 163.876 342.001 164.413 342.19 164.94H344.19L343.97 163.25C343.97 163.25 343.56 155.74 347.15 155.25C348.087 155.051 349.065 155.231 349.87 155.75C351.027 156.216 352.28 156.391 353.52 156.26C354.8 156.26 356.52 154.8 356.52 153.53C357.253 154.384 358.181 155.05 359.225 155.469C360.27 155.889 361.4 156.05 362.52 155.94C363.099 155.879 363.668 155.741 364.21 155.53C364.887 155.717 365.603 155.7 366.27 155.48C366.956 155.257 367.557 154.827 367.99 154.25C368.31 153.8 368.37 153.46 368.31 153.43C367.651 154.074 366.864 154.571 366 154.89V154.89ZM336.2 154.65C335.385 154.083 334.764 153.281 334.42 152.35C334.258 151.899 334.195 151.418 334.234 150.94C334.274 150.462 334.416 149.998 334.65 149.58C334.86 149.179 335.166 148.835 335.54 148.58C335.2 150.85 336.68 153.15 337.07 155.52C336.829 155.198 336.551 154.906 336.24 154.65H336.2Z" fill="#337ACC"/>
<path d="M400.38 164.28V177.17C400.38 178.573 400.937 179.919 401.929 180.911C402.921 181.903 404.267 182.46 405.67 182.46H428V189.83L432 182.78C433.185 182.694 434.293 182.163 435.102 181.292C435.911 180.422 436.36 179.278 436.36 178.09V164.28C436.359 163.58 436.219 162.888 435.948 162.242C435.677 161.597 435.281 161.012 434.782 160.521C434.284 160.03 433.693 159.643 433.043 159.381C432.394 159.12 431.7 158.991 431 159H405.67C404.269 159 402.925 159.556 401.933 160.546C400.941 161.536 400.383 162.879 400.38 164.28V164.28Z" fill="#337ACC"/>
<path d="M412.53 171.41C412.53 171.841 412.402 172.263 412.163 172.621C411.923 172.98 411.583 173.259 411.184 173.424C410.786 173.589 410.348 173.632 409.925 173.548C409.502 173.464 409.113 173.256 408.808 172.951C408.504 172.647 408.296 172.258 408.212 171.835C408.128 171.412 408.171 170.974 408.336 170.576C408.501 170.177 408.78 169.837 409.139 169.597C409.497 169.358 409.919 169.23 410.35 169.23C410.928 169.23 411.483 169.46 411.891 169.868C412.3 170.277 412.53 170.832 412.53 171.41Z" fill="white"/>
<path d="M420.81 171.41C420.81 171.841 420.682 172.263 420.443 172.621C420.203 172.98 419.863 173.259 419.464 173.424C419.066 173.589 418.628 173.632 418.205 173.548C417.782 173.464 417.394 173.256 417.089 172.951C416.784 172.647 416.576 172.258 416.492 171.835C416.408 171.412 416.451 170.974 416.616 170.576C416.781 170.177 417.061 169.837 417.419 169.597C417.778 169.358 418.199 169.23 418.63 169.23C419.208 169.23 419.763 169.46 420.172 169.868C420.581 170.277 420.81 170.832 420.81 171.41Z" fill="white"/>
<path d="M429.089 171.41C429.089 171.841 428.962 172.263 428.722 172.621C428.483 172.98 428.142 173.259 427.744 173.424C427.345 173.589 426.907 173.632 426.484 173.548C426.061 173.464 425.673 173.256 425.368 172.951C425.063 172.647 424.855 172.258 424.771 171.835C424.687 171.412 424.73 170.974 424.895 170.576C425.06 170.177 425.34 169.837 425.698 169.597C426.057 169.358 426.478 169.23 426.91 169.23C427.488 169.23 428.042 169.46 428.451 169.868C428.86 170.277 429.089 170.832 429.089 171.41Z" fill="white"/>
<path d="M418 202.59C417.55 201.59 389.15 226.66 383.49 227.52L366.93 205.94C366.93 205.94 363.49 200.49 356.1 191.15C351.34 185.15 338.19 186.37 334.73 193.72C328.86 206.19 328.66 222.72 324.12 249.28L320.28 271.81C320.28 271.81 325.95 271.14 325.93 271.19L366.25 267L367.25 240C375.25 248.08 377.69 249.77 381.84 249.12C392.27 247.51 428.76 214.69 428.76 214.69C428.76 214.69 418.44 203.61 418 202.59Z" fill="#455A64"/>
<path d="M423.84 219.28C423.112 218.837 422.44 218.306 421.84 217.7C418.72 214.93 416.001 211.739 413.76 208.22C413.255 207.516 412.841 206.749 412.53 205.94C413.071 206.589 413.563 207.277 414 208C414.92 209.29 416.23 211.05 417.8 212.89C419.37 214.73 420.89 216.3 422.02 217.42C422.677 217.989 423.286 218.611 423.84 219.28V219.28Z" fill="#263238"/>
<path d="M381.88 236.07C382.051 233.17 382.562 230.301 383.4 227.52C383.241 230.421 382.731 233.292 381.88 236.07Z" fill="#263238"/>
<path d="M385.5 235.18C384.914 234.005 384.487 232.757 384.23 231.47C383.801 230.231 383.542 228.939 383.46 227.63C384.041 228.807 384.467 230.054 384.73 231.34C385.153 232.581 385.412 233.872 385.5 235.18Z" fill="#263238"/>
<path opacity="0.2" d="M345.84 211.67L366.83 251.35L367.3 239.58L345.84 211.67Z" fill="black"/>
<path d="M344.479 209.74C344.846 210.111 345.18 210.512 345.479 210.94L347.979 214.29C350.089 217.13 353.039 221.02 356.349 225.29L364.849 236.18L367.399 239.5C367.728 239.894 368.023 240.315 368.279 240.76C367.916 240.411 367.582 240.033 367.279 239.63C366.589 238.79 365.689 237.71 364.599 236.41C362.359 233.67 359.289 229.87 355.979 225.61C352.669 221.35 349.759 217.41 347.719 214.52C346.719 213.07 345.889 211.89 345.349 211.06C345.02 210.647 344.729 210.205 344.479 209.74V209.74Z" fill="#263238"/>
<path d="M345.14 222.14C344.969 221.753 344.845 221.347 344.77 220.93C344.57 220.14 344.31 219.01 344 217.62L344.31 217.77L340.18 220L339.9 220.15L339.81 219.84C339.66 219.3 339.5 218.73 339.33 218.15L338.61 215.56L338.98 215.71L334.91 218L334.66 218.14V217.86C334.424 216.626 334.283 215.376 334.24 214.12C334.602 215.324 334.87 216.555 335.04 217.8L334.75 217.66L338.75 215.27L339.03 215.1L339.12 215.42C339.35 216.25 339.6 217.12 339.85 218.01C340.02 218.59 340.18 219.16 340.33 219.7L339.96 219.55L344.13 217.38L344.38 217.24L344.43 217.52C344.69 218.91 344.9 220.06 345.02 220.86C345.114 221.28 345.154 221.71 345.14 222.14Z" fill="#263238"/>
<path d="M350.069 199.71C349.671 199.557 349.294 199.352 348.949 199.1C348.259 198.67 347.289 198.04 346.109 197.26L346.429 197.15C346.009 198.48 345.539 200 345.029 201.63L344.929 201.94L344.649 201.78L343.129 200.89L340.809 199.53L341.179 199.38L339.849 203.86L339.769 204.13L339.549 203.96C338.523 203.235 337.554 202.433 336.649 201.56C337.743 202.179 338.789 202.877 339.779 203.65L339.479 203.75C339.829 202.43 340.239 200.91 340.689 199.25L340.779 198.93L341.059 199.1L343.389 200.44L344.909 201.33L344.539 201.47L345.999 197L346.099 196.73L346.329 196.89C347.479 197.71 348.419 198.39 349.069 198.89C349.435 199.121 349.771 199.396 350.069 199.71V199.71Z" fill="#263238"/>
<path d="M364.8 207.42C364.448 207.178 364.129 206.893 363.85 206.57C363.27 206 362.45 205.17 361.47 204.15H361.81C361.11 205.36 360.31 206.73 359.46 208.22L359.3 208.49L359.06 208.27L357.77 207.08L355.77 205.25L356.17 205.18C355.33 206.69 354.56 208.06 353.89 209.25L353.75 209.5L353.57 209.29C352.729 208.349 351.96 207.346 351.27 206.29C352.202 207.132 353.071 208.041 353.87 209.01H353.55L355.72 204.88L355.88 204.59L356.12 204.81L358.12 206.64L359.4 207.84H359.01L361.43 203.84L361.58 203.6L361.77 203.81C362.77 204.81 363.49 205.73 364.01 206.35C364.321 206.668 364.587 207.028 364.8 207.42V207.42Z" fill="#E0E0E0"/>
<path d="M403.639 232.67C403.639 232.67 403.299 232.35 402.799 231.72C402.299 231.09 401.589 230.16 400.749 229.02H401.089L398.249 232.76L398.049 233.01L397.849 232.77L396.709 231.42L394.999 229.36H395.399L392.629 233.11L392.459 233.34L392.309 233.11C391.594 232.078 390.956 230.995 390.399 229.87C391.219 230.811 391.964 231.814 392.629 232.87H392.309C393.099 231.76 393.999 230.47 394.989 229.05L395.179 228.79L395.389 229.04L397.119 231.1L398.249 232.45H397.849L400.759 228.77L400.939 228.54L401.099 228.77C401.909 229.94 402.559 230.9 403.009 231.58C403.258 231.919 403.47 232.285 403.639 232.67V232.67Z" fill="#263238"/>
<path d="M379.59 230.65C379.23 230.444 378.895 230.199 378.59 229.92C377.95 229.42 377.04 228.69 375.95 227.8L376.28 227.72L374.38 232L374.26 232.29L374 232.1L372.57 231.1L370.4 229.5L370.79 229.39C370.13 230.99 369.53 232.39 369 233.7L368.89 233.97L368.69 233.77C367.744 232.947 366.864 232.051 366.06 231.09C367.082 231.815 368.048 232.618 368.95 233.49L368.64 233.56C369.13 232.28 369.7 230.81 370.32 229.21L370.44 228.9L370.7 229.09L372.88 230.67L374.3 231.67L373.91 231.78L375.85 227.5L375.97 227.24L376.18 227.42C377.24 228.36 378.11 229.13 378.71 229.68C379.31 230.23 379.62 230.61 379.59 230.65Z" fill="#E0E0E0"/>
<path d="M414 225C413.864 224.598 413.776 224.182 413.74 223.76C413.62 222.95 413.46 221.76 413.28 220.4L413.58 220.57L409.26 222.43L408.97 222.55L408.91 222.24C408.81 221.68 408.7 221.1 408.59 220.51C408.42 219.59 408.26 218.71 408.11 217.86L408.46 218.04L404.21 220L403.95 220.11V219.83C403.827 218.58 403.803 217.323 403.88 216.07C404.128 217.303 404.279 218.553 404.33 219.81L404.06 219.64L408.27 217.64L408.56 217.49L408.62 217.82C408.78 218.67 408.95 219.55 409.12 220.46C409.23 221.06 409.33 221.64 409.43 222.19L409.08 222L413.43 220.23L413.7 220.12V220.4C413.83 221.81 413.93 222.97 413.98 223.78C414.033 224.184 414.039 224.594 414 225V225Z" fill="#E0E0E0"/>
<path d="M366.06 214.34C365.732 214.599 365.377 214.82 365 215C364.3 215.4 363.28 216 362 216.63L362.06 216.29L365.33 219.66L365.55 219.89L365.28 220.06L363.78 220.97L361.48 222.37V221.97L364.78 225.27L364.98 225.48L364.72 225.59C363.594 226.146 362.427 226.614 361.23 226.99C362.295 226.322 363.408 225.734 364.56 225.23L364.51 225.55L361.13 222.33L360.89 222.11L361.17 221.94L363.47 220.53L364.97 219.62V220.01C363.8 218.77 362.71 217.6 361.76 216.58L361.56 216.37L361.82 216.25C363.09 215.63 364.14 215.12 364.87 214.79C365.244 214.587 365.645 214.436 366.06 214.34V214.34Z" fill="#263238"/>
<path d="M384.41 236.07C384.082 236.342 383.723 236.574 383.34 236.76C382.64 237.16 381.62 237.76 380.34 238.38L380.39 238.05L383.67 241.42L383.89 241.64L383.62 241.81L382.12 242.73L379.81 244.12L379.86 243.73L383.16 247.03L383.36 247.23L383.1 247.34C381.973 247.894 380.806 248.365 379.61 248.75C380.695 248.083 381.828 247.498 383 247L382.94 247.32L379.57 244.1L379.33 243.87L379.61 243.7L381.9 242.3L383.41 241.38L383.36 241.78L380.15 238.35L379.95 238.14L380.2 238.02C381.47 237.39 382.52 236.89 383.26 236.55C383.621 236.341 384.008 236.179 384.41 236.07V236.07Z" fill="#E0E0E0"/>
<path d="M348 235.78C347.833 235.388 347.709 234.979 347.63 234.56C347.43 233.77 347.17 232.64 346.86 231.26L347.17 231.4L343 233.65L342.72 233.81L342.64 233.5C342.48 232.95 342.32 232.38 342.16 231.8C341.91 230.91 341.66 230.04 341.43 229.21L341.8 229.36L337.74 231.65L337.49 231.79V231.51C337.261 230.278 337.12 229.032 337.07 227.78C337.435 228.98 337.702 230.207 337.87 231.45L337.58 231.31L341.58 228.92L341.86 228.76L341.95 229.07C342.18 229.9 342.43 230.77 342.69 231.66L343.16 233.36L342.79 233.2L346.96 231.03L347.21 230.9L347.27 231.17C347.53 232.56 347.73 233.71 347.86 234.51C347.957 234.926 348.004 235.352 348 235.78Z" fill="#E0E0E0"/>
<path d="M364.66 245.22C364.49 244.829 364.366 244.419 364.29 244C364.09 243.21 363.83 242.08 363.52 240.7L363.83 240.84L359.71 243.09L359.43 243.25L359.34 242.94C359.18 242.39 359.02 241.82 358.86 241.25C358.61 240.35 358.37 239.48 358.13 238.65L358.5 238.8L354.44 241.09L354.19 241.23V240.96C353.96 239.725 353.82 238.475 353.77 237.22C354.132 238.42 354.4 239.647 354.57 240.89L354.28 240.76L358.28 238.37L358.56 238.2L358.65 238.52C358.89 239.35 359.13 240.21 359.39 241.1L359.86 242.8L359.5 242.64L363.66 240.47L363.92 240.34L363.97 240.61C364.23 242 364.43 243.15 364.56 243.95C364.649 244.367 364.683 244.794 364.66 245.22V245.22Z" fill="#263238"/>
<path d="M340.21 266C340.039 265.613 339.915 265.207 339.84 264.79C339.64 264 339.38 262.87 339.07 261.49L339.38 261.63L335.26 263.88L334.98 264.03L334.89 263.72C334.73 263.18 334.57 262.61 334.41 262.03L333.69 259.44L334.05 259.59L330 261.92L329.75 262.06V261.78C329.52 260.545 329.379 259.295 329.33 258.04C329.692 259.244 329.959 260.474 330.13 261.72L329.84 261.58L333.84 259.19L334.12 259.02L334.21 259.34C334.45 260.17 334.69 261.04 334.95 261.93L335.42 263.62L335.06 263.47L339.22 261.3L339.48 261.16L339.53 261.44C339.79 262.83 339.99 263.98 340.12 264.78C340.209 265.18 340.239 265.591 340.21 266Z" fill="#E0E0E0"/>
<path d="M340.689 244.19C340.31 243.996 339.957 243.754 339.639 243.47C338.989 242.99 338.069 242.27 336.969 241.38L337.299 241.3L335.489 245.64L335.369 245.93L335.109 245.74C334.639 245.42 334.159 245.07 333.669 244.74L331.489 243.17L331.869 243.06L330.129 247.39L330.019 247.65L329.819 247.46C328.868 246.641 327.976 245.755 327.149 244.81C328.187 245.518 329.166 246.307 330.079 247.17L329.769 247.25C330.239 245.97 330.769 244.49 331.399 242.88L331.509 242.57L331.779 242.76L333.999 244.3L335.429 245.3L335.049 245.4L336.939 241.1L337.059 240.84L337.269 241.02C338.339 241.95 339.219 242.71 339.819 243.26C340.145 243.535 340.437 243.847 340.689 244.19V244.19Z" fill="#263238"/>
<path d="M349.41 244.78C349.109 245.074 348.773 245.329 348.41 245.54C347.74 245.99 346.76 246.62 345.56 247.37V247.03L349.07 250.16L349.3 250.38L349.04 250.56L347.61 251.56L345.41 253.11V252.72L349 255.8L349.21 255.99L348.97 256.12C347.883 256.752 346.75 257.3 345.58 257.76C346.597 257.017 347.666 256.348 348.78 255.76V256.08L345.18 253.08L344.93 252.87L345.2 252.68L347.39 251.12L348.82 250.12V250.52L345.38 247.33L345.17 247.13L345.41 246.99C346.63 246.28 347.64 245.7 348.36 245.31C348.686 245.09 349.039 244.912 349.41 244.78V244.78Z" fill="#263238"/>
<path d="M359 251.6C358.813 251.982 358.578 252.338 358.3 252.66C357.82 253.32 357.11 254.24 356.24 255.36L356.16 255.03L360.52 256.78L360.81 256.89L360.63 257.16L359.63 258.61L358.09 260.82L357.97 260.43L362.32 262.11L362.59 262.22L362.4 262.42C361.599 263.388 360.723 264.29 359.78 265.12C360.485 264.082 361.264 263.096 362.11 262.17L362.19 262.48L357.8 260.91L357.49 260.8L357.68 260.53C358.16 259.82 358.68 259.08 359.2 258.31C359.55 257.82 359.88 257.31 360.2 256.87L360.31 257.25L356 255.42L355.74 255.31L355.92 255.09C356.83 254 357.58 253.09 358.12 252.51C358.66 251.93 359 251.57 359 251.6Z" fill="#E0E0E0"/>
<path d="M353.56 267.9C353.56 267.9 353.56 268.01 353.67 268.23C353.78 268.45 353.84 268.8 353.96 269.23C354.2 270.1 354.56 271.39 354.96 273.06C355.36 274.73 355.87 276.77 356.22 279.2C356.458 280.525 356.28 281.891 355.71 283.11C355.077 284.461 354.211 285.69 353.15 286.74V286.57C355.77 299.01 359.44 316.44 363.51 335.72C367.46 354.72 370.99 371.87 373.51 384.32C374.76 390.54 375.75 395.58 376.4 399.07C376.73 400.81 376.97 402.17 377.12 403.07C377.23 403.535 377.284 404.012 377.28 404.49C377.28 404.49 377.2 404.01 377.02 403.09C376.84 402.17 376.55 400.8 376.2 399.09C375.47 395.58 374.43 390.56 373.15 384.37C370.55 371.92 366.98 354.76 363.03 335.81C359.03 316.51 355.41 299.07 352.83 286.63V286.53L352.9 286.46C355.02 284.33 356.45 281.64 355.9 279.22C355.58 276.81 355.09 274.75 354.72 273.08C354.35 271.41 354.03 270.15 353.81 269.24L353.57 268.24C353.553 268.127 353.55 268.013 353.56 267.9V267.9Z" fill="#455A64"/>
<path d="M332.5 270.3C332.5 270.3 332.66 270.52 332.81 270.98C333.024 271.627 333.152 272.299 333.19 272.98C333.355 275.264 332.666 277.529 331.257 279.334C329.847 281.139 327.817 282.357 325.56 282.75C324.901 282.873 324.229 282.913 323.56 282.87C323.311 282.874 323.063 282.83 322.83 282.74C322.83 282.64 323.89 282.74 325.52 282.39C327.646 281.922 329.541 280.727 330.88 279.011C332.218 277.295 332.915 275.165 332.85 272.99C332.786 272.087 332.67 271.189 332.5 270.3V270.3Z" fill="#455A64"/>
<path d="M349.25 271.37C349.25 271.37 349.25 271.22 349.49 271.09C349.64 271.003 349.806 270.947 349.977 270.925C350.149 270.903 350.323 270.915 350.49 270.96C350.749 271.024 350.983 271.164 351.161 271.361C351.339 271.559 351.454 271.806 351.49 272.07C351.539 272.401 351.476 272.739 351.31 273.029C351.145 273.32 350.888 273.547 350.578 273.675C350.269 273.802 349.926 273.823 349.604 273.733C349.282 273.644 348.999 273.449 348.8 273.18C348.637 272.972 348.534 272.722 348.504 272.459C348.474 272.196 348.518 271.93 348.63 271.69C349.04 270.88 349.7 270.86 349.68 270.92C349.66 270.98 349.2 271.16 348.98 271.82C348.915 271.998 348.899 272.19 348.932 272.376C348.966 272.562 349.048 272.736 349.17 272.88C349.319 273.048 349.514 273.169 349.731 273.228C349.948 273.286 350.177 273.28 350.39 273.21C350.592 273.112 350.758 272.956 350.869 272.761C350.98 272.567 351.029 272.343 351.01 272.12C350.995 271.936 350.925 271.76 350.809 271.616C350.693 271.472 350.537 271.365 350.36 271.31C349.993 271.211 349.604 271.232 349.25 271.37Z" fill="#455A64"/>
<path d="M370.39 273.59C369.819 273.992 369.147 274.224 368.45 274.26C366.768 274.512 365.052 274.144 363.622 273.224C362.193 272.304 361.147 270.895 360.68 269.26C360.439 268.622 360.373 267.931 360.49 267.26C360.58 267.26 360.6 268.04 361.02 269.19C361.549 270.692 362.562 271.975 363.899 272.84C365.236 273.705 366.823 274.102 368.41 273.97C369.63 273.81 370.36 273.51 370.39 273.59Z" fill="#455A64"/>
<path d="M381.37 426.48C381.044 426.57 380.707 426.61 380.37 426.6L377.65 426.75L368.65 427.18L359.65 427.65L356.92 427.76C356.588 427.807 356.252 427.807 355.92 427.76C356.242 427.65 356.579 427.589 356.92 427.58C357.55 427.5 358.48 427.4 359.63 427.3C361.92 427.09 365.1 426.86 368.63 426.68C372.16 426.5 375.33 426.42 377.63 426.41C378.78 426.41 379.71 426.41 380.36 426.41C380.698 426.387 381.038 426.41 381.37 426.48V426.48Z" fill="#455A64"/>
<path d="M335.72 281.71C335.86 281.71 343.72 314.14 353.31 354.21C362.9 394.28 370.53 426.81 370.39 426.84C370.25 426.87 362.39 394.42 352.8 354.33C343.21 314.24 335.58 281.74 335.72 281.71Z" fill="#455A64"/>
<path d="M361.31 283C361.379 283.066 361.439 283.14 361.49 283.22L361.98 283.87L363.84 286.42L370.58 295.83L380.53 309.83L386.38 318.12C388.38 321 390.38 324.23 390.91 328.03C391.44 331.83 390.33 335.5 389.18 338.79C388.03 342.08 386.77 345.28 385.61 348.29C383.27 354.29 381.05 359.71 379.12 364.2C377.19 368.69 375.56 372.3 374.42 374.78L373.07 377.63L372.71 378.36C372.62 378.52 372.58 378.61 372.57 378.6C372.587 378.509 372.617 378.422 372.66 378.34C372.74 378.14 372.85 377.89 372.98 377.58L374.23 374.7C375.32 372.19 376.9 368.56 378.78 364.06C380.66 359.56 382.85 354.16 385.16 348.12C386.31 345.12 387.5 341.93 388.69 338.62C389.88 335.31 390.92 331.76 390.4 328.1C389.88 324.44 387.91 321.28 385.96 318.41L380.14 310.11L370.28 296L363.67 286.49L361.9 283.89C361.71 283.61 361.56 283.39 361.45 283.21C361.34 283.03 361.3 283 361.31 283Z" fill="#455A64"/>
<path d="M412.13 203.61L434.46 187.31L435.56 189.06L413.37 205.56L412.13 203.61Z" fill="#263238"/>
<path d="M417.649 203.11C417.649 203.11 420.649 195.31 421.319 193.65C421.989 191.99 423.129 189.1 423.559 189.04C423.989 188.98 425.559 189.22 423.509 194.18C421.459 199.14 425.919 196.11 425.919 196.11L430.219 193.03C430.219 193.03 433.619 203.19 431.689 206.25C430.17 208.54 428.464 210.701 426.589 212.71L417.649 203.11Z" fill="#FFBE9D"/>
</svg>
